<svg id="visual" viewBox="0 0 960 540" width="960" height="540" xmlns="http://www.w3.org/2000/svg" xmlns:xlink="http://www.w3.org/1999/xlink" version="1.1"><path d="M0 482L20 477.2C40 472.3 80 462.7 120 454.7C160 446.7 200 440.3 240 437.5C280 434.7 320 435.3 360 439.3C400 443.3 440 450.7 480 456.3C520 462 560 466 600 468.8C640 471.7 680 473.3 720 470.3C760 467.3 800 459.7 840 457.7C880 455.7 920 459.3 940 461.2L960 463L960 541L940 541C920 541 880 541 840 541C800 541 760 541 720 541C680 541 640 541 600 541C560 541 520 541 480 541C440 541 400 541 360 541C320 541 280 541 240 541C200 541 160 541 120 541C80 541 40 541 20 541L0 541Z" fill="#212529" stroke-linecap="round" stroke-linejoin="miter"></path></svg>